<?xml version="1.0" encoding="UTF-8"?><svg id="Logo" xmlns="http://www.w3.org/2000/svg" viewBox="0 0 250 250"><defs><style>.cls-1,.cls-2{fill:#a4872c;}.cls-3{font-size:31px;letter-spacing:.3em;opacity:.94;}.cls-3,.cls-2{font-family:Montserrat-Regular, Montserrat;}.cls-2{font-size:14px;}.cls-4{letter-spacing:.27em;}.cls-5{letter-spacing:.29em;}.cls-6{letter-spacing:.28em;}.cls-7{letter-spacing:.3em;}.cls-8{letter-spacing:.3em;}</style></defs><path class="cls-1" d="m135.98,96.83c0,2.99.14,5.99-.03,8.98-.39,6.84-4.7,11.04-11.47,11.35-6.33.29-11.93-4.08-12.39-10.48-.48-6.62-.13-13.29-.24-19.94-.03-2.06,1.01-2.47,2.78-2.47,1.83,0,2.21.94,2.2,2.5-.03,5.49-.09,10.98.03,16.46.12,5.77,2.79,8.8,7.38,8.69,4.37-.1,6.7-2.91,6.83-8.61.13-5.32.07-10.64.02-15.96-.02-1.96.46-3.14,2.77-3.07,2.3.07,2.17,1.57,2.17,3.08.01,3.16,0,6.32,0,9.48-.02,0-.05,0-.07,0Z"/><path class="cls-1" d="m190.86,100.04c0-4.14.01-8.27,0-12.41,0-1.73-.06-3.3,2.43-3.37,2.42-.07,2.61,1.3,2.6,3.15-.03,8.6-.01,17.21-.01,25.81,0,1.66.25,3.27-2.37,3.32-2.89.05-2.66-1.72-2.65-3.59.02-4.3,0-8.6,0-12.91Z"/><path class="cls-1" d="m193.21,71.46c2.23.04,3.5,1.05,3.5,3.29,0,2.01-1.23,2.97-3.1,3.11-1.95.15-3.28-.93-3.45-2.76-.18-2.01.88-3.44,3.04-3.64Z"/><path class="cls-1" d="m102.11,111.53c-2.65,0-5.27.02-8.31.33,1.05-1.24,2.13-2.45,3.16-3.71,7.52-9.22,7.87-21.63.88-30.82-7.02-9.23-19.59-12.48-29.93-7.75-10.61,4.86-16.34,15.95-14.18,27.44,2.12,11.25,11.86,20.14,23.46,19.93,8.29-.15,16.58-.33,24.88-.44,1.75-.02,2.78-.34,2.76-2.44-.02-2.01-.9-2.54-2.73-2.53Zm-23.91.24c-11.06.09-19.65-8.35-19.73-19.38-.08-10.9,8.58-19.73,19.42-19.8,10.82-.06,19.73,8.69,19.84,19.49.11,10.84-8.58,19.6-19.53,19.69Z"/><path class="cls-1" d="m182,112.35c-3.41-.33-3.63-2.85-3.64-5.46-.01-3.15,0-6.31,0-9.46h-.02c0-3.49.02-6.97,0-10.46-.03-3.6-3.72-3.4-4.26-2.21-1.96,4.29-3.77,1.18-5.53.37-7.07-3.25-15.36-1.32-20.18,4.8-4.97,6.32-4.86,15.03.26,21.1,5.03,5.96,13.65,7.91,20.25,4.06,3.02-1.76,5.23-3.52,7.8.45.9,1.39,2.95,1.45,4.62,1.35,1.12-.07,2.36-.38,2.32-2.01-.02-1.19.08-2.36-1.6-2.52Zm-20.68-.36c-6.52-.06-11.67-5.29-11.58-11.77.09-6.48,5.42-11.75,11.77-11.65,6.54.11,11.57,5.28,11.53,11.84-.04,6.59-5.15,11.63-11.73,11.57Z"/><text class="cls-3" transform="translate(24.03 147.53)"><tspan x="0" y="0">ANTIQUE</tspan></text><path class="cls-1" d="m24.09,154.73h191.65c2.59,0,5.19.06,7.78,0,.11,0,.22,0,.33,0,.97,0,.97-1.5,0-1.5H32.2c-2.59,0-5.19-.06-7.78,0-.11,0-.22,0-.33,0-.97,0-.97,1.5,0,1.5h0Z"/><text class="cls-2" transform="translate(56 172.83)"><tspan class="cls-8" x="0" y="0">RE</tspan><tspan class="cls-5" x="27.89" y="0">S</tspan><tspan class="cls-4" x="40.56" y="0">T</tspan><tspan class="cls-6" x="52.3" y="0">A</tspan><tspan class="cls-7" x="66.33" y="0">URANT</tspan></text></svg>