<?xml version="1.0" encoding="UTF-8"?><svg id="Calque_1" xmlns="http://www.w3.org/2000/svg" viewBox="0 0 250 250"><defs><style>.cls-1{fill:#a4872c;}</style></defs><path id="FontAwsome_user-alt_" class="cls-1" d="m125,140.32c38.06.02,68.93-30.82,68.95-68.88.02-38.06-30.82-68.93-68.88-68.95-38.06-.02-68.93,30.82-68.95,68.88,0,.03,0,.05,0,.08.02,38.03,30.85,68.85,68.88,68.87Zm61.25,15.31h-26.38c-22.13,10.21-47.62,10.21-69.75,0h-26.34c-33.82,0-61.24,27.41-61.25,61.24v7.66c0,12.69,10.28,22.97,22.97,22.97h199.01c12.69,0,22.97-10.28,22.97-22.97v-7.66c0-33.82-27.42-61.24-61.25-61.24h.02Z"/></svg>